<svg width="45" height="45" viewBox="0 0 45 45" fill="none" xmlns="http://www.w3.org/2000/svg">
<path fill-rule="evenodd" clip-rule="evenodd" d="M22.3438 0C10.0036 0 0 10.0036 0 22.3438C0 34.6839 10.0036 44.6875 22.3438 44.6875C34.6839 44.6875 44.6875 34.6839 44.6875 22.3438C44.6875 10.0036 34.6839 0 22.3438 0ZM16.3281 13.75C15.0891 13.75 14.43 14.7098 14.1832 15.2035C13.8849 15.8001 13.75 16.5039 13.75 17.1875C13.75 17.8711 13.8849 18.5749 14.1832 19.1715C14.43 19.6652 15.0891 20.625 16.3281 20.625C17.5672 20.625 18.2262 19.6652 18.4731 19.1715C18.7714 18.5749 18.9062 17.8711 18.9062 17.1875C18.9062 16.5039 18.7714 15.8001 18.4731 15.2035C18.2262 14.7098 17.5672 13.75 16.3281 13.75ZM26.2144 15.2035C26.4613 14.7098 27.1203 13.75 28.3594 13.75C29.5984 13.75 30.2575 14.7098 30.5043 15.2035C30.8026 15.8001 30.9375 16.5039 30.9375 17.1875C30.9375 17.8711 30.8026 18.5749 30.5043 19.1715C30.2575 19.6652 29.5984 20.625 28.3594 20.625C27.1203 20.625 26.4613 19.6652 26.2144 19.1715C25.9161 18.5749 25.7812 17.8711 25.7812 17.1875C25.7812 16.5039 25.9161 15.8001 26.2144 15.2035ZM30.8511 30.8512C31.5223 30.18 31.5223 29.0917 30.8511 28.4205C30.1799 27.7493 29.0917 27.7493 28.4204 28.4205C25.0644 31.7766 19.6231 31.7766 16.2671 28.4205C15.5958 27.7493 14.5076 27.7493 13.8364 28.4205C13.1652 29.0917 13.1652 30.18 13.8364 30.8512C18.5349 35.5497 26.1526 35.5497 30.8511 30.8512Z" fill="white"/>
</svg>
