<svg width="33" height="38" viewBox="0 0 33 38" fill="none" xmlns="http://www.w3.org/2000/svg">
<path fill-rule="evenodd" clip-rule="evenodd" d="M24.7486 7.52877C32.6391 12.0376 35.3426 22.0237 30.787 29.8333C26.2314 37.6428 16.1419 40.3186 8.25138 35.8097C0.360867 31.3009 -2.34262 21.3148 2.21297 13.5052C2.60984 12.8249 3.04871 12.1835 3.52446 11.5824C3.99961 10.9821 4.91639 11.0729 5.39366 11.6716C6.04821 12.4926 6.79369 13.2392 7.61507 13.8967C8.39902 14.5243 9.46926 13.7843 9.4376 12.7869C9.43289 12.6383 9.43051 12.4891 9.43051 12.3393C9.43051 10.1968 9.91696 8.16666 10.7865 6.35128C12.043 3.72805 14.0994 1.55319 16.644 0.135342C17.2261 -0.189006 17.9413 0.0985306 18.2394 0.69017C19.6345 3.45861 21.8389 5.86605 24.7486 7.52877ZM25.9277 24.0023C25.9277 29.1553 21.7071 33.3326 16.5008 33.3326C11.9916 33.3326 8.20281 30.0706 7.2862 25.9111C7.06569 24.9105 8.32199 24.4103 9.2041 24.9457C10.3495 25.641 11.6394 26.0933 12.9782 26.2613C13.6915 26.3508 14.229 25.7026 14.1789 24.9928C14.1558 24.6656 14.144 24.3353 14.144 24.0023C14.144 20.6739 15.3179 17.6169 17.2782 15.2148C17.5229 14.915 17.9123 14.7678 18.2946 14.8407C22.6431 15.6699 25.9277 19.4564 25.9277 24.0023Z" fill="white"/>
</svg>
